<!DOCTYPE svg PUBLIC "-//W3C//DTD SVG 1.1//EN" "http://www.w3.org/Graphics/SVG/1.1/DTD/svg11.dtd">
<!-- Uploaded to: SVG Repo, www.svgrepo.com, Transformed by: SVG Repo Mixer Tools -->
<svg fill="#ffffff" height="800px" width="800px" version="1.1" xmlns="http://www.w3.org/2000/svg" viewBox="0 0 512 512" xmlns:xlink="http://www.w3.org/1999/xlink" enable-background="new 0 0 512 512" stroke="#ffffff">
<g id="SVGRepo_bgCarrier" stroke-width="0"/>
<g id="SVGRepo_tracerCarrier" stroke-linecap="round" stroke-linejoin="round"/>
<g id="SVGRepo_iconCarrier"> <g> <g> <path d="m199.6,276.2c-7.8-8.1-20.7-8.3-28.7-0.4-8.1,7.9-8.3,20.8-0.4,28.9l80.8,83.8c3.8,4 9.1,6.2 14.6,6.2 5.5,0 10.8-2.2 14.6-6.2l80.8-83.8c7.8-8.1 7.6-21.1-0.4-28.9-8.1-7.9-20.9-7.7-28.7,0.4l-45.8,47.6v-291.3c0-11.3-9.1-20.5-20.3-20.5-11.2,0-20.3,9.2-20.3,20.5v291.3l-46.2-47.6z"/> <path d="m465.9,293.9c-2.9-28.3-15.5-54.4-36-74.4-22.7-22.2-52.6-34.4-84.2-34.4-11.3,0-20.4,9.2-20.4,20.6 0,11.4 9.1,20.6 20.4,20.6 43.5,0 78.6,34.2 79.9,77.9 0.2,5.8 2.8,11.3 7.2,15 18,15.3 28.3,37.7 28.3,61.3 0,44.3-35.9,80.4-79.9,80.4h-248.4c-44.1,0-79.9-36.1-79.9-80.4 0-33.3 19.9-62.7 50.7-74.9 9.9-3.9 15.2-14.8 12.1-25-2.2-7.5-3.4-15.3-3.4-23.2 0-44.3 35.9-80.4 79.9-80.4 11.3,0 20.4-9.2 20.4-20.6 0-11.4-9.1-20.6-20.4-20.6-66.6,0-120.8,54.5-120.8,121.5 0,5.9 0.4,11.8 1.3,17.7-15.5,8.9-28.9,21.2-39.2,36.2-14.1,20.5-21.5,44.4-21.5,69.3 0,67 54.2,121.5 120.8,121.5h248.4c66.6,0 120.8-54.5 120.8-121.5-5.68434e-14-32.8-13.1-63.8-36.1-86.6z"/> </g> </g> </g>
</svg>