<?xml version="1.0" standalone="no"?>
<!DOCTYPE svg PUBLIC "-//W3C//DTD SVG 20010904//EN"
 "http://www.w3.org/TR/2001/REC-SVG-20010904/DTD/svg10.dtd">
<svg version="1.0" xmlns="http://www.w3.org/2000/svg"
 width="287.000000pt" height="399.000000pt" viewBox="0 0 287.000000 399.000000"
 preserveAspectRatio="xMidYMid meet">
<metadata>
Created by potrace 1.16, written by Peter Selinger 2001-2019
</metadata>
<g transform="translate(0.000000,399.000000) scale(0.100000,-0.100000)"
fill="#000000" stroke="none">
<path d="M16 2968 c-3 -563 -8 -1461 -10 -1995 l-4 -973 1434 0 1434 0 0 1345
0 1345 -625 0 -625 0 0 650 0 650 -799 0 -799 0 -6 -1022z m929 -1909 c89 -25
135 -88 135 -184 0 -130 -68 -189 -231 -202 l-79 -6 0 -78 0 -79 -65 0 -65 0
0 280 0 280 133 0 c72 0 150 -5 172 -11z m568 -13 c184 -82 224 -327 75 -460
-69 -63 -119 -76 -290 -76 l-138 0 0 281 0 281 158 -4 c119 -4 166 -9 195 -22z
m697 -36 l0 -60 -150 0 -150 0 0 -55 0 -55 130 0 130 0 0 -60 0 -60 -130 0
-130 0 0 -105 0 -105 -65 0 -65 0 0 280 0 280 215 0 215 0 0 -60z"/>
<path d="M770 870 l0 -82 65 4 c50 3 70 9 90 28 30 28 33 68 6 101 -16 19 -30
24 -90 27 l-71 4 0 -82z"/>
<path d="M1290 790 l0 -160 66 0 c115 0 174 47 182 146 9 107 -63 174 -186
174 l-62 0 0 -160z"/>
</g>
</svg>
